HIERARCHY
ROOT Hips
{
	OFFSET 0.000000 121.760803 0.000000
	CHANNELS 6 Xposition Yposition Zposition Xrotation Yrotation Zrotation 
	JOINT Spine
	{
		OFFSET 0.072000 7.257294 -0.789700
		CHANNELS 3 Xrotation Yrotation Zrotation
		JOINT Spine1
		{
			OFFSET 0.000000 12.508769 -0.658067
			CHANNELS 3 Xrotation Yrotation Zrotation
			JOINT Spine1_split
			{
				OFFSET 0.000000 12.508769 -0.658067
				CHANNELS 3 Xrotation Yrotation Zrotation
				JOINT Spine2
				{
					OFFSET 0.000000 12.508769 -0.658067
					CHANNELS 3 Xrotation Yrotation Zrotation
					JOINT Neck
					{
						OFFSET 0.000000 14.033295 7.520400
						CHANNELS 3 Xrotation Yrotation Zrotation
						JOINT Head
						{
							OFFSET 0.000000 8.198502 5.703100
							CHANNELS 3 Xrotation Yrotation Zrotation
							JOINT HeadTop_End
							{
								OFFSET 0.000000 17.760803 13.332701
								CHANNELS 3 Xrotation Yrotation Zrotation
								End Site
								{
									OFFSET 0.000000 0.000000 0.000000
								}
							}
						}
					}
					JOINT LeftShoulder
					{
						OFFSET 6.292450 5.785301 -0.669000
						CHANNELS 3 Xrotation Yrotation Zrotation
						JOINT LeftShoulder_split
						{
							OFFSET 6.292450 5.785301 -0.669000
							CHANNELS 3 Xrotation Yrotation Zrotation
							JOINT LeftArm
							{
								OFFSET 13.907140 -6.093903 1.965100
								CHANNELS 3 Xrotation Yrotation Zrotation
								JOINT LeftForeArm
								{
									OFFSET 34.140198 0.000000 0.000000
									CHANNELS 3 Xrotation Yrotation Zrotation
									JOINT LeftHand
									{
										OFFSET 40.960209 0.000000 0.000000
										CHANNELS 3 Xrotation Yrotation Zrotation
										JOINT LeftHandThumb1
										{
											OFFSET 10.006996 -7.170425 9.573125
											CHANNELS 3 Xrotation Yrotation Zrotation
											JOINT LeftHandThumb2
											{
												OFFSET 1.835007 -1.059448 1.059443
												CHANNELS 3 Xrotation Yrotation Zrotation
												JOINT LeftHandThumb3
												{
													OFFSET 2.112267 -1.219513 1.219518
													CHANNELS 3 Xrotation Yrotation Zrotation
													JOINT LeftHandThumb4
													{
														OFFSET 4.843811 -2.796570 2.796576
														CHANNELS 3 Xrotation Yrotation Zrotation
														End Site
														{
															OFFSET 0.000000 0.000000 0.000000
														}
													}
												}
											}
										}
										JOINT LeftHandIndex1
										{
											OFFSET 18.389847 -0.922348 4.596882
											CHANNELS 3 Xrotation Yrotation Zrotation
											JOINT LeftHandIndex2
											{
												OFFSET 4.711273 0.000000 0.000000
												CHANNELS 3 Xrotation Yrotation Zrotation
												JOINT LeftHandIndex3
												{
													OFFSET 2.886131 0.000000 0.000000
													CHANNELS 3 Xrotation Yrotation Zrotation
													JOINT LeftHandIndex4
													{
														OFFSET 6.145912 0.000000 0.000000
														CHANNELS 3 Xrotation Yrotation Zrotation
														End Site
														{
															OFFSET 0.000000 0.000000 0.000000
														}
													}
												}
											}
										}
										JOINT LeftHandMiddle1
										{
											OFFSET 18.013008 0.000000 0.000000
											CHANNELS 3 Xrotation Yrotation Zrotation
											JOINT LeftHandMiddle2
											{
												OFFSET 4.946693 0.000000 0.000000
												CHANNELS 3 Xrotation Yrotation Zrotation
												JOINT LeftHandMiddle3
												{
													OFFSET 3.342232 0.000000 0.000000
													CHANNELS 3 Xrotation Yrotation Zrotation
													JOINT LeftHandMiddle4
													{
														OFFSET 4.461754 0.000000 0.000000
														CHANNELS 3 Xrotation Yrotation Zrotation
														End Site
														{
															OFFSET 0.000000 0.000000 0.000000
														}
													}
												}
											}
										}
										JOINT LeftHandRing1
										{
											OFFSET 15.849892 -0.102921 -4.126150
											CHANNELS 3 Xrotation Yrotation Zrotation
											JOINT LeftHandRing2
											{
												OFFSET 3.527054 0.000000 0.000000
												CHANNELS 3 Xrotation Yrotation Zrotation
												JOINT LeftHandRing3
												{
													OFFSET 2.961098 0.000000 0.000000
													CHANNELS 3 Xrotation Yrotation Zrotation
													JOINT LeftHandRing4
													{
														OFFSET 4.927200 0.000000 0.000000
														CHANNELS 3 Xrotation Yrotation Zrotation
														End Site
														{
															OFFSET 0.000000 0.000000 0.000000
														}
													}
												}
											}
										}
										JOINT LeftHandPinky1
										{
											OFFSET 12.791824 -0.832031 -6.799156
											CHANNELS 3 Xrotation Yrotation Zrotation
											JOINT LeftHandPinky2
											{
												OFFSET 3.327133 0.000000 0.000000
												CHANNELS 3 Xrotation Yrotation Zrotation
												JOINT LeftHandPinky3
												{
													OFFSET 3.014900 0.000000 0.000000
													CHANNELS 3 Xrotation Yrotation Zrotation
													JOINT LeftHandPinky4
													{
														OFFSET 5.847786 0.000000 0.000000
														CHANNELS 3 Xrotation Yrotation Zrotation
														End Site
														{
															OFFSET 0.000000 0.000000 0.000000
														}
													}
												}
											}
										}
									}
								}
							}
						}
					}
					JOINT RightShoulder
					{
						OFFSET -6.292450 5.785301 -0.669000
						CHANNELS 3 Xrotation Yrotation Zrotation
						JOINT RightShoulder_split
						{
							OFFSET -6.292450 5.785301 -0.669000
							CHANNELS 3 Xrotation Yrotation Zrotation
							JOINT RightArm
							{
								OFFSET -13.907140 -6.093903 1.965100
								CHANNELS 3 Xrotation Yrotation Zrotation
								JOINT RightForeArm
								{
									OFFSET -34.140198 0.000000 0.000000
									CHANNELS 3 Xrotation Yrotation Zrotation
									JOINT RightHand
									{
										OFFSET -40.960209 0.000000 0.000000
										CHANNELS 3 Xrotation Yrotation Zrotation
										JOINT RightHandThumb1
										{
											OFFSET -10.007050 -7.170456 9.573117
											CHANNELS 3 Xrotation Yrotation Zrotation
											JOINT RightHandThumb2
											{
												OFFSET -1.835007 -1.059448 1.059443
												CHANNELS 3 Xrotation Yrotation Zrotation
												JOINT RightHandThumb3
												{
													OFFSET -2.112267 -1.219513 1.219518
													CHANNELS 3 Xrotation Yrotation Zrotation
													JOINT RightHandThumb4
													{
														OFFSET -4.843834 -2.796585 2.796590
														CHANNELS 3 Xrotation Yrotation Zrotation
														End Site
														{
															OFFSET 0.000000 0.000000 0.000000
														}
													}
												}
											}
										}
										JOINT RightHandIndex1
										{
											OFFSET -18.389870 -0.922424 4.596786
											CHANNELS 3 Xrotation Yrotation Zrotation
											JOINT RightHandIndex2
											{
												OFFSET -4.711273 0.000000 0.000000
												CHANNELS 3 Xrotation Yrotation Zrotation
												JOINT RightHandIndex3
												{
													OFFSET -2.886131 0.000000 0.000000
													CHANNELS 3 Xrotation Yrotation Zrotation
													JOINT RightHandIndex4
													{
														OFFSET -6.145920 0.000000 0.000000
														CHANNELS 3 Xrotation Yrotation Zrotation
														End Site
														{
															OFFSET 0.000000 0.000000 0.000000
														}
													}
												}
											}
										}
										JOINT RightHandMiddle1
										{
											OFFSET -18.013008 0.000000 0.000000
											CHANNELS 3 Xrotation Yrotation Zrotation
											JOINT RightHandMiddle2
											{
												OFFSET -4.946693 0.000000 0.000000
												CHANNELS 3 Xrotation Yrotation Zrotation
												JOINT RightHandMiddle3
												{
													OFFSET -3.342232 0.000000 0.000000
													CHANNELS 3 Xrotation Yrotation Zrotation
													JOINT RightHandMiddle4
													{
														OFFSET -4.461754 0.000000 0.000000
														CHANNELS 3 Xrotation Yrotation Zrotation
														End Site
														{
															OFFSET 0.000000 0.000000 0.000000
														}
													}
												}
											}
										}
										JOINT RightHandRing1
										{
											OFFSET -15.849876 -0.102936 -4.126237
											CHANNELS 3 Xrotation Yrotation Zrotation
											JOINT RightHandRing2
											{
												OFFSET -3.527054 0.000000 0.000000
												CHANNELS 3 Xrotation Yrotation Zrotation
												JOINT RightHandRing3
												{
													OFFSET -2.961098 0.000000 0.000000
													CHANNELS 3 Xrotation Yrotation Zrotation
													JOINT RightHandRing4
													{
														OFFSET -4.927200 0.000000 0.000000
														CHANNELS 3 Xrotation Yrotation Zrotation
														End Site
														{
															OFFSET 0.000000 0.000000 0.000000
														}
													}
												}
											}
										}
										JOINT RightHandPinky1
										{
											OFFSET -12.791786 -0.832077 -6.799222
											CHANNELS 3 Xrotation Yrotation Zrotation
											JOINT RightHandPinky2
											{
												OFFSET -3.327133 0.000000 0.000000
												CHANNELS 3 Xrotation Yrotation Zrotation
												JOINT RightHandPinky3
												{
													OFFSET -3.014900 0.000000 0.000000
													CHANNELS 3 Xrotation Yrotation Zrotation
													JOINT RightHandPinky4
													{
														OFFSET -5.847786 0.000000 0.000000
														CHANNELS 3 Xrotation Yrotation Zrotation
														End Site
														{
															OFFSET 0.000000 0.000000 0.000000
														}
													}
												}
											}
										}
									}
								}
							}
						}
					}
				}
			}
		}
	}
	JOINT LeftUpLeg
	{
		OFFSET 13.026900 -6.336304 -1.092800
		CHANNELS 3 Xrotation Yrotation Zrotation
		JOINT LeftLeg
		{
			OFFSET 0.524474 -46.096886 9.782700
			CHANNELS 3 Xrotation Yrotation Zrotation
			JOINT LeftFoot
			{
				OFFSET -0.524474 -53.427422 -12.948200
				CHANNELS 3 Xrotation Yrotation Zrotation
				JOINT LeftToeBase
				{
					OFFSET 0.192200 -14.009700 16.364100
					CHANNELS 3 Xrotation Yrotation Zrotation
					JOINT LeftToe_End
					{
						OFFSET -1.784700 -0.561700 9.474800
						CHANNELS 3 Xrotation Yrotation Zrotation
						End Site
						{
							OFFSET 0.000000 0.000000 0.000000
						}
					}
				}
			}
		}
	}
	JOINT RightUpLeg
	{
		OFFSET -12.883000 -6.336304 -1.092800
		CHANNELS 3 Xrotation Yrotation Zrotation
		JOINT RightLeg
		{
			OFFSET -0.524587 -46.096825 9.782800
			CHANNELS 3 Xrotation Yrotation Zrotation
			JOINT RightFoot
			{
				OFFSET 0.524587 -53.427383 -12.948300
				CHANNELS 3 Xrotation Yrotation Zrotation
				JOINT RightToeBase
				{
					OFFSET -0.192200 -14.009700 16.364100
					CHANNELS 3 Xrotation Yrotation Zrotation
					JOINT RightToe_End
					{
						OFFSET 1.784700 -0.561700 9.474800
						CHANNELS 3 Xrotation Yrotation Zrotation
						End Site
						{
							OFFSET 0.000000 0.000000 0.000000
						}
					}
				}
			}
		}
	}
}
MOTION
Frames: 4
Frame Time: 0.016667
-41.498661 113.343483 -39.664040 4.574681 0.364658 -3.194055 1.732480 1.340161 -3.960991 2.669527 2.765865 -1.144402 0.000000 0.000000 0.000000 2.711152 2.741216 -1.111869 -0.169236 1.518459 2.033063 -4.044502 8.985416 5.077304 -0.000000 -0.000000 -0.000000 1.433978 -4.062823 -11.219144 0.000000 0.000000 0.000000 -3.341573 24.380987 -39.671306 0.000087 -68.585857 0.000096 0.243760 -28.052567 -0.273040 -1.540043 3.690199 6.142360 3.946760 7.971408 0.752852 -0.575591 1.586240 2.542361 -0.000004 0.000001 0.000004 0.000001 0.000014 0.000003 0.000002 -0.000003 -0.000003 0.000002 0.000004 0.000006 -0.000002 0.000001 0.000000 -0.000002 -0.001913 0.015982 -0.000000 0.001913 -0.015988 -0.000002 0.000011 0.000001 0.000000 -0.000000 -0.000000 0.000002 0.000008 0.000003 -0.000003 0.000002 -0.000005 0.000001 0.000012 0.000007 0.000001 0.000001 -0.000002 -0.018089 4.054256 0.511075 -0.018090 -4.054251 -0.511072 0.000005 -0.000010 -0.000002 -0.000002 -0.000002 -0.000001 0.748687 -2.655727 10.687282 0.000000 0.000000 0.000000 -17.948791 -16.241862 40.821271 -0.000002 12.072948 0.000000 3.899476 8.202190 6.283290 -1.849255 -3.581790 -6.586139 4.645031 -8.656803 -0.231321 -1.269827 0.126061 -2.098689 0.000000 -0.000000 0.000003 -0.000004 0.000002 0.000010 0.000000 0.000016 0.000003 0.000001 -0.000015 0.000008 -0.000001 -0.000001 -0.000001 0.000003 -0.000000 0.000002 -0.000001 0.000001 0.000012 -0.000000 0.000001 0.000001 -0.000001 0.000000 0.000001 -0.000000 0.000001 0.000002 -0.000001 -0.000003 0.000053 -0.000001 -0.000001 0.000007 -0.000000 -0.000000 -0.000002 -0.000000 -0.000002 -0.000000 -0.000000 0.000004 0.000010 -0.000002 -0.000000 0.000008 -0.000001 -0.000000 0.000002 -43.639199 -1.340653 11.403357 46.589338 8.521803 0.935830 16.167157 12.354763 -4.609881 0.000000 -0.000008 0.000003 -0.000001 0.000003 -0.000000 -2.614159 -11.839184 -7.256770 25.734107 -6.948926 0.014748 -10.706107 -4.465202 15.165486 -8.468367 -0.000000 -0.000004 0.000000 0.000002 -0.000000 
-40.869160 113.848076 -39.922226 4.755897 -0.379709 -3.118277 1.542476 1.674579 -4.074464 2.374024 3.259592 -1.400064 0.000000 0.000000 0.000000 2.430398 3.238699 -1.364456 -0.224067 1.432991 2.227387 -4.033164 8.722012 5.409509 0.000000 -0.000001 -0.000000 1.467534 -4.240642 -11.592417 0.000000 0.000000 0.000000 5.654183 26.367488 -43.866818 0.000034 -67.796738 0.000047 0.073321 -29.850218 1.113511 -1.540043 3.690196 6.142361 3.946760 7.971409 0.752854 -0.575599 1.586244 2.542366 0.000002 -0.000000 0.000003 0.000002 0.000012 0.000003 -0.000002 -0.000004 -0.000002 0.000003 0.000004 0.000007 -0.000002 -0.000001 0.000003 -0.000002 -0.001915 0.015983 0.000003 0.001913 -0.015984 -0.000002 0.000010 0.000003 0.000000 -0.000001 -0.000001 0.000002 0.000004 0.000002 -0.000004 0.000001 -0.000005 0.000002 0.000009 0.000010 -0.000002 0.000001 -0.000001 -0.018089 4.054256 0.511074 -0.018093 -4.054254 -0.511072 0.000005 -0.000009 -0.000001 0.000000 -0.000001 -0.000001 0.734775 -2.719269 10.596595 0.000000 0.000000 0.000000 -18.801311 -15.324288 39.607068 0.000000 12.657101 -0.000005 3.908929 3.805297 10.426483 -1.849258 -3.581790 -6.586127 4.645032 -8.656805 -0.231319 -1.269828 0.126060 -2.098681 0.000000 0.000000 0.000002 -0.000002 0.000000 0.000003 -0.000002 0.000016 0.000008 -0.000001 -0.000015 0.000013 -0.000000 -0.000001 0.000002 -0.000004 0.000001 0.000009 -0.000001 0.000001 0.000013 0.000000 0.000001 0.000002 -0.000000 -0.000001 0.000002 -0.000004 0.000001 0.000007 -0.000001 -0.000002 0.000056 -0.000002 -0.000001 0.000008 0.000001 0.000001 -0.000002 -0.000003 0.000000 -0.000002 0.000000 0.000004 0.000009 0.000001 -0.000000 0.000006 -0.000000 -0.000001 0.000001 -41.571219 -1.583871 13.117441 47.585276 8.505096 1.023756 16.391107 14.459830 -2.243682 -0.462089 -0.000017 0.000001 0.000001 0.000002 -0.000001 -3.138325 -11.655026 -8.151650 25.160040 -5.672284 0.040833 -9.583618 -3.416697 15.839774 -8.742658 0.000002 -0.000003 -0.000000 0.000001 -0.000000 
-40.201187 114.367264 -40.136158 5.084357 -0.984790 -3.029065 1.329287 1.966089 -4.178048 2.032628 3.712427 -1.607211 0.000000 0.000000 0.000000 2.103382 3.696492 -1.570157 -0.275675 1.345612 2.361040 -3.983147 8.395972 5.665071 0.000000 0.000001 -0.000000 1.481608 -4.316640 -11.747586 0.000000 0.000000 0.000000 12.772036 27.916453 -48.290889 -0.000019 -66.123963 -0.000041 0.079361 -30.831593 0.943955 -1.540044 3.690193 6.142357 3.946760 7.971404 0.752855 -0.575596 1.586240 2.542363 0.000002 -0.000000 0.000001 0.000003 0.000012 0.000002 0.000001 0.000005 -0.000003 0.000003 -0.000000 0.000005 0.000000 0.000001 0.000002 -0.000002 -0.001916 0.015980 0.000003 0.001916 -0.015988 -0.000003 0.000009 0.000004 -0.000000 -0.000003 -0.000001 0.000004 0.000006 0.000001 -0.000002 0.000002 -0.000002 0.000001 0.000007 0.000008 0.000001 -0.000001 0.000000 -0.018088 4.054256 0.511073 -0.018091 -4.054251 -0.511069 0.000002 -0.000011 -0.000002 -0.000003 -0.000002 -0.000003 0.715795 -2.807279 10.472893 0.000000 0.000000 0.000000 -19.463268 -14.733594 38.616660 -0.000004 13.178795 0.000028 4.426772 0.064402 14.071450 -1.849253 -3.581783 -6.586149 4.645032 -8.656802 -0.231322 -1.269828 0.126061 -2.098688 -0.000000 0.000000 -0.000001 0.000002 -0.000000 -0.000006 -0.000001 0.000017 0.000002 0.000002 -0.000014 0.000008 -0.000000 0.000001 0.000001 0.000001 0.000001 -0.000001 0.000000 0.000004 0.000006 0.000001 0.000003 -0.000006 -0.000000 -0.000001 -0.000001 0.000004 -0.000000 -0.000014 -0.000002 -0.000000 0.000049 -0.000001 0.000000 0.000004 -0.000001 0.000000 0.000001 0.000001 0.000001 -0.000000 -0.000000 0.000005 0.000009 -0.000000 0.000001 0.000003 0.000000 -0.000001 0.000001 -39.219537 -1.705229 14.904694 47.468066 8.484355 1.133939 16.397087 16.721623 -0.519680 -0.931765 0.000005 0.000001 -0.000002 -0.000001 0.000000 -3.628802 -11.465190 -8.978656 24.371257 -4.189137 0.096982 -8.472686 -2.585894 16.505396 -9.145283 0.000001 -0.000002 -0.000000 -0.000001 -0.000000 
-39.509979 114.875984 -40.314003 5.518010 -1.374391 -2.939649 1.108009 2.215771 -4.253652 1.667892 4.119296 -1.757986 0.000000 0.000000 0.000000 1.751483 4.109060 -1.720882 -0.329440 1.250087 2.443577 -3.904389 7.989617 5.840143 0.000001 0.000000 -0.000000 1.475786 -4.286668 -11.679664 0.000000 0.000000 0.000000 17.858450 29.300364 -52.334381 0.000034 -63.835289 0.000016 0.424028 -30.787160 -0.397642 -1.540044 3.690197 6.142358 3.946760 7.971405 0.752850 -0.575594 1.586243 2.542364 0.000000 -0.000002 -0.000001 0.000000 0.000011 0.000003 -0.000001 0.000002 -0.000001 0.000000 0.000001 0.000005 -0.000001 0.000002 0.000000 -0.000001 -0.001914 0.015982 0.000000 0.001914 -0.015987 0.000001 0.000007 0.000002 0.000002 -0.000001 0.000000 0.000002 0.000005 0.000002 -0.000002 0.000001 -0.000004 0.000001 0.000012 0.000007 -0.000002 0.000001 0.000001 -0.018091 4.054253 0.511073 -0.018091 -4.054249 -0.511071 0.000003 -0.000007 0.000000 -0.000001 -0.000003 0.000001 0.694856 -2.907717 10.339741 0.000000 0.000000 0.000000 -19.916138 -14.501851 37.786751 0.000001 13.690954 -0.000001 5.062894 -2.860967 16.812041 -1.849257 -3.581787 -6.586127 4.645032 -8.656803 -0.231327 -1.269828 0.126060 -2.098688 0.000000 0.000000 -0.000000 -0.000001 -0.000001 -0.000000 -0.000000 0.000015 0.000003 0.000002 -0.000015 0.000009 -0.000001 0.000001 0.000002 -0.000003 0.000001 0.000007 -0.000000 0.000002 0.000005 0.000001 0.000003 0.000002 0.000000 0.000001 -0.000004 -0.000003 -0.000001 0.000001 0.000000 -0.000002 0.000054 -0.000001 -0.000001 0.000003 0.000000 0.000000 0.000000 -0.000002 -0.000001 0.000004 0.000001 0.000003 0.000012 0.000000 -0.000001 0.000004 0.000001 -0.000000 0.000002 -36.657632 -1.654352 16.719548 46.300070 8.475315 1.255112 16.051332 19.067407 0.814757 -0.681168 0.000000 -0.000007 0.000001 0.000002 0.000001 -4.003156 -11.269057 -9.648311 23.367590 -2.391148 0.188854 -7.439725 -2.266640 17.056698 -9.616479 -0.000009 -0.000001 -0.000000 -0.000000 0.000000 
